<?xml version="1.0" encoding="iso-8859-1"?>
<!-- Generator: Adobe Illustrator 17.1.0, SVG Export Plug-In . SVG Version: 6.00 Build 0)  -->
<!DOCTYPE svg PUBLIC "-//W3C//DTD SVG 1.1//EN" "http://www.w3.org/Graphics/SVG/1.1/DTD/svg11.dtd">
<svg version="1.1" id="Capa_1" xmlns="http://www.w3.org/2000/svg" xmlns:xlink="http://www.w3.org/1999/xlink" x="0px" y="0px"
	 viewBox="0 0 412.452 412.452" style="enable-background:new 0 0 412.452 412.452;" xml:space="preserve">
<path id="XMLID_47_" d="M345.823,241.2c-3.652,0-7.225,0.495-10.652,1.463c-4.233-17.117-19.722-29.844-38.127-29.844
	c-21.656,0-39.274,17.617-39.274,39.271v28.25H154.682v-28.25c0-21.654-17.618-39.271-39.273-39.271
	c-18.406,0-33.895,12.728-38.128,29.844c-3.427-0.967-6.999-1.462-10.651-1.462c-21.654,0-39.271,17.617-39.271,39.271v64.328
	c0,21.654,17.618,39.271,39.272,39.271c3.651,0,7.223-0.495,10.65-1.463c4.233,17.116,19.723,29.844,38.128,29.844
	c21.655,0,39.272-17.617,39.272-39.271v-28.248H257.77v28.248c0,21.654,17.618,39.271,39.272,39.271
	c18.406,0,33.895-12.728,38.128-29.844c3.427,0.968,7,1.463,10.65,1.463c21.655,0,39.272-17.617,39.272-39.271v-64.328
	C385.094,258.817,367.477,241.2,345.823,241.2z M76.138,363.81c-2.935,1.488-6.161,2.261-9.507,2.261
	c-11.729,0-21.272-9.542-21.272-21.271v-64.328c0-11.729,9.542-21.271,21.271-21.271c3.348,0,6.575,0.773,9.508,2.26V363.81z
	 M136.682,373.181c0,11.729-9.543,21.271-21.272,21.271s-21.272-9.542-21.272-21.271v-4.39c0-0.059,0-0.117,0-0.176V256.657
	c0-0.059,0-0.119,0-0.179v-4.388c0-11.729,9.542-21.271,21.271-21.271c11.73,0,21.273,9.542,21.273,21.271V373.181z M257.77,326.933
	H154.682v-28.592H257.77V326.933z M318.314,256.477c0,0.061,0,0.122,0,0.182v111.955c0,0.059,0,0.118,0,0.176v4.39
	c0,11.729-9.542,21.271-21.272,21.271s-21.272-9.542-21.272-21.271v-37.248V252.09c0-11.729,9.543-21.271,21.274-21.271
	c11.729,0,21.271,9.542,21.271,21.271V256.477z M367.094,344.799c0,11.729-9.543,21.271-21.272,21.271
	c-3.346,0-6.572-0.773-9.507-2.261V261.46c2.934-1.487,6.161-2.26,9.509-2.26c11.729,0,21.271,9.542,21.271,21.271V344.799z
	 M158.243,134.99c0,4.971-4.029,9-9,9h-16.239c-4.971,0-9-4.029-9-9s4.029-9,9-9h16.239
	C154.214,125.99,158.243,130.019,158.243,134.99z M158.243,163.998c0,4.971-4.029,9-9,9h-16.239c-4.971,0-9-4.029-9-9s4.029-9,9-9
	h16.239C154.214,154.998,158.243,159.027,158.243,163.998z M80.58,203.729c4.971,0,9-4.029,9-9v-20.161
	c11.87-6.959,19.494-19.902,19.494-33.926c0-14.023-7.624-26.967-19.494-33.926v-0.667c0-11.729,9.542-21.272,21.271-21.272h60.545
	c10.472,0,19.2,7.604,20.953,17.581c-12.922,12.686-22.591,33.204-22.591,48.797c0,19.034,10.503,30.727,22.912,34.502v67.457
	c0,4.971,4.029,9,9,9s9-4.029,9-9v-67.456c12.408-3.774,22.912-15.468,22.912-34.503c0-15.81-9.942-36.687-23.137-49.326
	c-1.76-16.396-13.654-29.806-29.274-33.821V40.59c0-4.971-4.029-9-9-9h-4.694V9c0-4.971-4.029-9-9-9h-34.705c-4.971,0-9,4.029-9,9
	v22.59h-4.695c-4.971,0-9,4.029-9,9v27.418c-16.939,4.356-29.496,19.76-29.496,38.041v6.297c0,3.734,2.306,7.08,5.795,8.41
	c8.194,3.123,13.699,11.114,13.699,19.886s-5.505,16.763-13.699,19.885c-3.49,1.33-5.795,4.676-5.795,8.41v25.791
	C71.58,199.7,75.609,203.729,80.58,203.729z M201.669,118.782c7.87,9.41,13.912,22.929,13.912,32.373
	c0,12.327-6.987,17.844-13.911,17.844c-6.925,0-13.913-5.519-13.913-17.844C187.758,141.71,193.799,128.191,201.669,118.782z
	 M132.771,18h16.705v13.59h-16.705V18z M119.076,49.59h44.094v17.187h-44.094V49.59z M308.281,252.747v3.472c0,4.971-4.029,9-9,9
	s-9-4.029-9-9v-3.472c0-4.971,4.029-9,9-9S308.281,247.776,308.281,252.747z"/>
<g>
</g>
<g>
</g>
<g>
</g>
<g>
</g>
<g>
</g>
<g>
</g>
<g>
</g>
<g>
</g>
<g>
</g>
<g>
</g>
<g>
</g>
<g>
</g>
<g>
</g>
<g>
</g>
<g>
</g>
</svg>
